<svg width="61" height="68" viewBox="0 0 61 68" fill="none" xmlns="http://www.w3.org/2000/svg">
<path d="M26.8525 0.85759C28.8519 -0.285929 31.3083 -0.285798 33.3076 0.85759L45.1182 7.61443L45.125 7.61833V7.61931L56.8691 14.5881C58.8263 15.7496 60.0336 17.8504 60.0518 20.1261L60.1602 33.8986V33.9064L60.0518 47.6789V47.6945L60.0361 48.0871L60.0352 48.0959V48.1037C59.8804 50.2139 58.704 52.129 56.8691 53.2179L45.125 60.1867L45.1182 60.1906L33.3076 66.9474L33.2939 66.9552L32.9434 67.1408L32.9277 67.1486C31.1313 68.0243 29.0289 68.0244 27.2324 67.1486L27.2246 67.1447L27.2178 67.1408L26.8672 66.9552L26.8594 66.9513L26.8525 66.9474L15.042 60.1906L15.0352 60.1867L3.29102 53.2179C1.33387 52.0562 0.126385 49.9546 0.108398 47.6789L0 33.9064V33.8986L0.108398 20.1261C0.126558 17.8505 1.33414 15.7496 3.29102 14.5881L15.0352 7.61931L15.042 7.61443L26.8525 0.85759ZM30.3281 6.0656C30.1935 5.98894 30.0317 5.97964 29.8906 6.03728L29.832 6.0656L18.0771 12.7873L18.0781 12.7883L9.0332 18.1545L13.8467 20.6877C15.0676 21.3307 15.5371 22.842 14.8945 24.0636C14.2917 25.209 12.9252 25.6935 11.75 25.2199L11.5186 25.1125L6.09082 22.256L6 33.9064L6.1084 47.632C6.10987 47.8073 6.20269 47.9696 6.35254 48.0588L18.0703 55.0119H18.0713L28.2275 60.8195V55.5236C28.2277 54.143 29.3473 53.0239 30.7275 53.0236L30.9834 53.0363C32.2439 53.1644 33.2274 54.2294 33.2275 55.5236V60.0783L42.0879 55.0119L53.8076 48.0588C53.9575 47.9697 54.0503 47.8075 54.0518 47.632L54.1592 33.9064L54.0654 22.1349L49.3369 24.8088C48.1351 25.4876 46.6101 25.064 45.9307 23.8625C45.2517 22.6607 45.675 21.1346 46.877 20.4552L51.0371 18.1027L42.0811 12.7883V12.7873L30.3281 6.0656ZM30.0781 47.5002H26.1875L24.6562 42.2658H17.5156L15.9688 47.5002H12.0625L19.4688 24.7502H22.7969L30.0781 47.5002ZM40.0938 24.7502C41.2708 24.7606 42.3542 24.9116 43.3438 25.2033C44.3333 25.4949 45.1875 25.9221 45.9062 26.4845C46.6145 27.0574 47.1667 27.7711 47.5625 28.6252C47.9583 29.4689 48.1562 30.4586 48.1562 31.5939C48.1562 32.3751 48.052 33.0836 47.8438 33.7189C47.6459 34.3543 47.3645 34.9273 47 35.4377C46.6354 35.948 46.1979 36.396 45.6875 36.7814C45.1771 37.1668 44.6093 37.5002 43.9844 37.7814L48.8438 47.297V47.5002H44.8281L40.4688 38.672H36.625V47.5002H32.875V24.7502H40.0938ZM18.4688 39.047H23.7344L21.125 30.047L18.4688 39.047ZM36.625 35.6095H40.1406C40.8073 35.5991 41.4063 35.5002 41.9375 35.3127C42.4791 35.1148 42.9375 34.8335 43.3125 34.4689C43.6458 34.1564 43.9063 33.7709 44.0938 33.3127C44.2812 32.8544 44.375 32.3334 44.375 31.7502C44.375 31.094 44.2708 30.5209 44.0625 30.0314C43.8646 29.5315 43.5677 29.1147 43.1719 28.7814C42.8073 28.469 42.3645 28.2345 41.8438 28.0783C41.3229 27.9116 40.7396 27.8231 40.0938 27.8127H36.625V35.6095Z" fill="url(#paint0_linear_3223_175)"/>
<defs>
<linearGradient id="paint0_linear_3223_175" x1="30.5" y1="14.5002" x2="30.5" y2="49.5002" gradientUnits="userSpaceOnUse">
<stop stop-color="#050810"/>
<stop offset="0.5" stop-color="#152243"/>
<stop offset="1" stop-color="#050810"/>
</linearGradient>
</defs>
</svg>
