<svg width="72" height="73" viewBox="0 0 72 73" fill="none" xmlns="http://www.w3.org/2000/svg">
<path d="M2 62C3.10457 62 4 62.8954 4 64V67C4 68.1046 4.89543 69 6 69H8C9.10457 69 10 69.8954 10 71C10 72.1046 9.10457 73 8 73H6C2.68629 73 0 70.3137 0 67V64C2.57706e-07 62.8954 0.895431 62 2 62ZM70 62C71.1046 62 72 62.8954 72 64V67C72 70.3137 69.3137 73 66 73H64C62.8954 73 62 72.1046 62 71C62 69.8954 62.8954 69 64 69H66C67.1046 69 68 68.1046 68 67V64C68 62.8954 68.8954 62 70 62ZM32.7598 4.58398C34.7592 3.44043 37.2155 3.44056 39.2148 4.58398L51.0254 11.3408L51.0322 11.3447V11.3457L62.7764 18.3145C64.7335 19.476 65.9409 21.5768 65.959 23.8525L66.0674 37.625V37.6328L65.959 51.4053V51.4209L65.9434 51.8135L65.9424 51.8223V51.8301C65.7877 53.9404 64.6113 55.8554 62.7764 56.9443L51.0322 63.9131L51.0254 63.917L39.2148 70.6738L39.2012 70.6816L38.8506 70.8672L38.835 70.875C37.0385 71.7506 34.9361 71.7508 33.1396 70.875L33.1318 70.8711L33.125 70.8672L32.7744 70.6816L32.7666 70.6777L32.7598 70.6738L20.9492 63.917L20.9424 63.9131L9.19824 56.9443C7.24107 55.7826 6.03361 53.681 6.01562 51.4053L5.90723 37.6328V37.625L6.01562 23.8525C6.03375 21.5769 7.24134 19.4761 9.19824 18.3145L20.9424 11.3457L20.9492 11.3408L32.7598 4.58398ZM36.2354 9.79199C36.1007 9.7153 35.9389 9.70601 35.7979 9.76367L35.7393 9.79199L23.9844 16.5137L23.9854 16.5146L14.9404 21.8809L19.7539 24.4141C20.9749 25.0571 21.4444 26.5683 20.8018 27.79C20.199 28.9354 18.8324 29.4199 17.6572 28.9463L17.4258 28.8389L11.998 25.9824L11.9072 37.6328L12.0156 51.3584C12.0171 51.5337 12.1099 51.696 12.2598 51.7852L23.9775 58.7383H23.9785L34.1348 64.5459V59.25C34.1348 57.8694 35.2545 56.7503 36.6348 56.75L36.8906 56.7627C38.1511 56.8908 39.1347 57.9557 39.1348 59.25V63.8047L47.9951 58.7383L59.7148 51.7852C59.8647 51.6961 59.9575 51.5339 59.959 51.3584L60.0664 37.6328L59.9727 25.8613L55.2441 28.5352C54.0424 29.214 52.5173 28.7904 51.8379 27.5889C51.1588 26.3871 51.5822 24.861 52.7842 24.1816L56.9443 21.8291L47.9883 16.5146V16.5137L36.2354 9.79199ZM35.5781 51H31.6875L30.1562 45.7656H23.0156L21.4688 51H17.5625L24.9688 28.25H28.2969L35.5781 51ZM45.5938 28.25C46.7708 28.2604 47.8542 28.4115 48.8438 28.7031C49.8333 28.9948 50.6875 29.4219 51.4062 29.9844C52.1146 30.5573 52.6667 31.2708 53.0625 32.125C53.4583 32.9688 53.6562 33.9583 53.6562 35.0938C53.6562 35.875 53.5521 36.5833 53.3438 37.2188C53.1458 37.8542 52.8646 38.4271 52.5 38.9375C52.1354 39.4479 51.6979 39.8958 51.1875 40.2812C50.6771 40.6667 50.1094 41 49.4844 41.2812L54.3438 50.7969V51H50.3281L45.9688 42.1719H42.125V51H38.375V28.25H45.5938ZM23.9688 42.5469H29.2344L26.625 33.5469L23.9688 42.5469ZM42.125 39.1094H45.6406C46.3073 39.099 46.9062 39 47.4375 38.8125C47.9792 38.6146 48.4375 38.3333 48.8125 37.9688C49.1458 37.6562 49.4062 37.2708 49.5938 36.8125C49.7812 36.3542 49.875 35.8333 49.875 35.25C49.875 34.5938 49.7708 34.0208 49.5625 33.5312C49.3646 33.0312 49.0677 32.6146 48.6719 32.2812C48.3073 31.9688 47.8646 31.7344 47.3438 31.5781C46.8229 31.4115 46.2396 31.3229 45.5938 31.3125H42.125V39.1094ZM8 0C9.10457 0 10 0.895431 10 2C10 3.10457 9.10457 4 8 4H6C4.89543 4 4 4.89543 4 6V8C4 9.10457 3.10457 10 2 10C0.89543 10 0 9.10457 0 8V6C0 2.68629 2.68629 0 6 0H8ZM66 0C69.3137 0 72 2.68629 72 6V8C72 9.10457 71.1046 10 70 10C68.8954 10 68 9.10457 68 8V6C68 4.89543 67.1046 4 66 4H64C62.8954 4 62 3.10457 62 2C62 0.89543 62.8954 0 64 0H66Z" fill="url(#paint0_linear_3219_132)"/>
<defs>
<linearGradient id="paint0_linear_3219_132" x1="0" y1="36.5" x2="72" y2="36.5" gradientUnits="userSpaceOnUse">
<stop stop-color="#050810"/>
<stop offset="1" stop-color="#152243"/>
</linearGradient>
</defs>
</svg>
